<svg xmlns="http://www.w3.org/2000/svg" width="960" height="320" viewBox="0 0 960 320" role="img" aria-label="Ngurra Pathways logo concept 09">
  <defs>
    <linearGradient id="wm" x1="0" y1="0" x2="1" y2="0">
      <stop offset="0" stop-color="#a855f7"/>
      <stop offset="0.5" stop-color="#6366f1"/>
      <stop offset="1" stop-color="#ec4899"/>
    </linearGradient>
  </defs>

  <!-- Australia behind wordmark -->
  <g transform="translate(64,60)">
    <path d="M40 118
             C60 78, 128 70, 164 86
             C196 58, 250 86, 256 136
             C280 178, 252 234, 204 248
             C196 288, 154 316, 110 312
             C66 326, 28 300, 16 262
             C-18 246, -22 178, 40 118Z"
          transform="translate(130,-10) scale(0.65)"
          fill="rgba(99,102,241,0.10)" stroke="rgba(99,102,241,0.22)" stroke-width="4"/>

    <path d="M140 140
             C172 100, 238 96, 282 136
             C306 156, 316 196, 296 224
             C260 272, 184 270, 150 226
             C134 206, 132 174, 140 140Z"
          transform="translate(72,6) scale(0.55)"
          fill="#f59e0b" opacity="0.95"/>
  </g>

  <g transform="translate(320,108)">
    <text x="0" y="0" font-family="system-ui, -apple-system, Segoe UI, Roboto, Arial" font-size="56" font-weight="900" fill="url(#wm)">Ngurra</text>
    <text x="240" y="0" font-family="system-ui, -apple-system, Segoe UI, Roboto, Arial" font-size="56" font-weight="800" fill="#1e293b">Pathways</text>
    <text x="0" y="48" font-family="system-ui, -apple-system, Segoe UI, Roboto, Arial" font-size="18" font-weight="600" fill="#64748b">Built for community. Designed for momentum.</text>
  </g>
</svg>
