<svg xmlns="http://www.w3.org/2000/svg" width="960" height="320" viewBox="0 0 960 320" role="img" aria-label="Ngurra Pathways logo concept 07">
  <defs>
    <linearGradient id="crest" x1="0" y1="0" x2="1" y2="1">
      <stop offset="0" stop-color="#1C2B36"/>
      <stop offset="1" stop-color="#2F4C5C"/>
    </linearGradient>
    <linearGradient id="aura" x1="0" y1="0" x2="1" y2="0">
      <stop offset="0" stop-color="#a855f7"/>
      <stop offset="1" stop-color="#ec4899"/>
    </linearGradient>
  </defs>

  <g transform="translate(60,44)">
    <path d="M120 0
             C164 12, 204 12, 240 0
             V118
             C240 178, 196 226, 120 252
             C44 226, 0 178, 0 118
             V0
             C36 12, 76 12, 120 0Z"
          fill="url(#crest)" stroke="rgba(255,255,255,0.14)"/>

    <path d="M52 92
             C70 64, 110 58, 132 66
             C152 50, 186 62, 190 86
             C202 106, 190 126, 172 132
             C168 148, 150 156, 132 156
             C110 164, 90 154, 82 142
             C64 138, 58 110, 52 92Z"
          fill="none" stroke="url(#aura)" stroke-width="7" stroke-linejoin="round"/>

    <path d="M92 132
             C108 112, 140 114, 152 134
             C158 144, 156 156, 148 164
             C132 182, 104 176, 96 158
             C92 150, 92 142, 92 132Z"
          fill="#f59e0b"/>

    <text x="120" y="208" text-anchor="middle" font-family="system-ui, -apple-system, Segoe UI, Roboto, Arial" font-size="14" font-weight="800" fill="rgba(255,255,255,0.85)">NGURRA</text>
    <text x="120" y="226" text-anchor="middle" font-family="system-ui, -apple-system, Segoe UI, Roboto, Arial" font-size="12" font-weight="700" fill="rgba(255,255,255,0.70)">PATHWAYS</text>
  </g>

  <g transform="translate(340,112)">
    <text x="0" y="0" font-family="system-ui, -apple-system, Segoe UI, Roboto, Arial" font-size="46" font-weight="900" fill="#1e293b">Ngurra Pathways</text>
    <text x="0" y="42" font-family="system-ui, -apple-system, Segoe UI, Roboto, Arial" font-size="18" font-weight="600" fill="#64748b">A modern crest for a modern journey</text>
  </g>
</svg>
