<svg xmlns="http://www.w3.org/2000/svg" width="960" height="320" viewBox="0 0 960 320" role="img" aria-label="Ngurra Pathways logo concept 02">
  <defs>
    <linearGradient id="strokeAura" x1="0" y1="0" x2="1" y2="0">
      <stop offset="0" stop-color="#a855f7"/>
      <stop offset="0.5" stop-color="#6366f1"/>
      <stop offset="1" stop-color="#ec4899"/>
    </linearGradient>
  </defs>

  <g transform="translate(64,54)">
    <rect x="0" y="0" width="212" height="212" rx="48" fill="rgba(255,255,255,0.04)" stroke="rgba(255,255,255,0.10)"/>

    <!-- Australia outline (abstract) -->
    <path d="M52 88
             C68 58, 116 52, 136 62
             C156 40, 194 56, 198 92
             C216 120, 202 156, 174 164
             C170 188, 148 204, 124 204
             C98 212, 70 200, 60 178
             C40 170, 34 126, 52 88Z"
          fill="none" stroke="url(#strokeAura)" stroke-width="8" stroke-linejoin="round"/>

    <!-- Kangaroo: negative space line mark -->
    <path d="M92 146
             C112 122, 146 120, 162 140
             C168 148, 172 160, 166 172
             C154 196, 118 196, 102 176
             C96 168, 94 158, 92 146Z"
          fill="none" stroke="#f59e0b" stroke-width="6" stroke-linejoin="round"/>
    <path d="M126 132 L156 116" stroke="#f59e0b" stroke-width="6" stroke-linecap="round"/>
  </g>

  <g transform="translate(320,112)">
    <text x="0" y="0" font-family="system-ui, -apple-system, Segoe UI, Roboto, Arial" font-size="46" font-weight="900" fill="#1e293b">Ngurra</text>
    <text x="190" y="0" font-family="system-ui, -apple-system, Segoe UI, Roboto, Arial" font-size="46" font-weight="700" fill="#1e293b">Pathways</text>
    <rect x="0" y="18" width="210" height="6" rx="3" fill="#f59e0b"/>
    <text x="0" y="46" font-family="system-ui, -apple-system, Segoe UI, Roboto, Arial" font-size="18" font-weight="600" fill="#64748b">Opportunity across Country</text>
  </g>
</svg>
